# xmcd
#
# Track frame offsets:
#	150
#	19191
#	37070
#	55858
#	73360
#	95273
#	110999
#	126660
#	144797
#	158454
#
# Disc length: 2376 seconds
#
# Revision: 1
# Processed by: cddbd v1.5.1PL0 Copyright (c) Steve Scherf et al.
# Submitted via: CDex 1.50Beta5
#
DISCID=8f09460a
DTITLE=相曽晴日 - トワイライトの風
DYEAR=2001
DGENRE=
TTITLE0=トワイライト
TTITLE1=コーヒーハウスにて
TTITLE2=雨の日にはワルツ
TTITLE3=舞
TTITLE4=フルムーンに寄せて
TTITLE5=歳末の街角
TTITLE6=彼女はまき毛
TTITLE7=哀しみのトワイライトゾーン
TTITLE8=金糸雀色の風
TTITLE9=マジカルソング
EXTD=
EXTT0=
EXTT1=
EXTT2=
EXTT3=
EXTT4=
EXTT5=
EXTT6=
EXTT7=
EXTT8=
EXTT9=
PLAYORDER=
